<svg viewBox="0 0 760 480" xmlns="http://www.w3.org/2000/svg" font-family="'Segoe UI',Arial,sans-serif">
  <defs>
    <linearGradient id="bg" x1="0" y1="0" x2="1" y2="1">
      <stop offset="0%" stop-color="#0a1628"/>
      <stop offset="100%" stop-color="#0d2240"/>
    </linearGradient>
    <linearGradient id="card" x1="0" y1="0" x2="0" y2="1">
      <stop offset="0%" stop-color="#112035"/>
      <stop offset="100%" stop-color="#0c1a2e"/>
    </linearGradient>
    <linearGradient id="teal" x1="0" y1="0" x2="0" y2="1">
      <stop offset="0%" stop-color="#14b8a6"/>
      <stop offset="100%" stop-color="#0d9488"/>
    </linearGradient>
    <linearGradient id="amber" x1="0" y1="0" x2="0" y2="1">
      <stop offset="0%" stop-color="#f59e0b"/>
      <stop offset="100%" stop-color="#d97706"/>
    </linearGradient>
    <filter id="shadow">
      <feDropShadow dx="0" dy="4" stdDeviation="8" flood-color="#000" flood-opacity="0.35"/>
    </filter>
    <filter id="glow">
      <feDropShadow dx="0" dy="0" stdDeviation="6" flood-color="#14b8a6" flood-opacity="0.4"/>
    </filter>
  </defs>

  <!-- Background -->
  <rect width="760" height="480" fill="url(#bg)"/>

  <!-- Decorative rings -->
  <circle cx="700" cy="80" r="140" fill="#14b8a6" fill-opacity="0.04"/>
  <circle cx="700" cy="80" r="90" fill="#14b8a6" fill-opacity="0.04"/>
  <circle cx="60" cy="400" r="110" fill="#f59e0b" fill-opacity="0.04"/>

  <!-- ═══ COSTA RICA MAP (simplified outline as decorative bg) ═══ -->
  <g opacity="0.07">
    <path d="M 340 120 Q 380 110 420 130 Q 450 140 460 170 Q 470 200 455 230 Q 445 250 430 260 Q 410 275 390 280 Q 370 285 350 275 Q 330 265 320 245 Q 305 220 310 190 Q 315 160 340 120Z" fill="#14b8a6" stroke="#14b8a6" stroke-width="1"/>
  </g>

  <!-- ═══ MAIN ADUANAS PANEL ═══ -->
  <g filter="url(#shadow)">
    <rect x="28" y="28" width="470" height="295" rx="14" fill="url(#card)" stroke="rgba(20,184,166,0.15)" stroke-width="1"/>
  </g>

  <!-- Panel header -->
  <rect x="28" y="28" width="470" height="44" rx="14" fill="#0d2a38"/>
  <rect x="28" y="54" width="470" height="18" fill="#0d2a38"/>
  <circle cx="52" cy="50" r="6" fill="#ef4444"/>
  <circle cx="70" cy="50" r="6" fill="#f59e0b"/>
  <circle cx="88" cy="50" r="6" fill="#22c55e"/>
  <text x="210" y="55" font-size="11" fill="rgba(255,255,255,0.55)" text-anchor="middle">Sistema de Aduanas — TICA Interface</text>
  <!-- TICA badge -->
  <rect x="420" y="37" width="64" height="20" rx="4" fill="rgba(20,184,166,0.2)" stroke="rgba(20,184,166,0.5)" stroke-width="1"/>
  <text x="452" y="51" font-size="8" fill="#5eead4" text-anchor="middle" font-weight="700">TICA ✓</text>

  <!-- Status bar -->
  <rect x="40" y="82" width="446" height="22" rx="5" fill="rgba(255,255,255,0.03)"/>
  <text x="50" y="96" font-size="8" fill="rgba(255,255,255,0.35)">Conexión TICA:</text>
  <circle cx="132" cy="92" r="4" fill="#22c55e"/>
  <text x="140" y="96" font-size="8" fill="#22c55e">En línea</text>
  <text x="200" y="96" font-size="8" fill="rgba(255,255,255,0.25)">|</text>
  <text x="210" y="96" font-size="8" fill="rgba(255,255,255,0.35)">RECAUCA XML:</text>
  <circle cx="286" cy="92" r="4" fill="#22c55e"/>
  <text x="294" y="96" font-size="8" fill="#22c55e">Activo</text>
  <text x="360" y="96" font-size="8" fill="rgba(255,255,255,0.25)">|</text>
  <text x="370" y="96" font-size="8" fill="rgba(255,255,255,0.35)">DUA hoy:</text>
  <text x="414" y="96" font-size="8" fill="#f59e0b" font-weight="700">47 procesados</text>

  <!-- ═══ 4 MODULE CARDS ═══ -->
  <!-- Almacén Fiscal -->
  <rect x="40" y="112" width="108" height="78" rx="8" fill="rgba(20,184,166,0.1)" stroke="rgba(20,184,166,0.3)" stroke-width="1"/>
  <rect x="40" y="112" width="108" height="5" rx="8" fill="#14b8a6"/>
  <text x="94" y="132" font-size="8" fill="#5eead4" text-anchor="middle" font-weight="700">ALMACÉN FISCAL</text>
  <text x="94" y="147" font-size="20" text-anchor="middle">🏛️</text>
  <text x="94" y="166" font-size="8" fill="rgba(255,255,255,0.6)" text-anchor="middle">Reg. activos: 128</text>
  <text x="94" y="178" font-size="7" fill="rgba(255,255,255,0.35)" text-anchor="middle">Exonerados: 34</text>

  <!-- Almacén General -->
  <rect x="155" y="112" width="108" height="78" rx="8" fill="rgba(59,130,246,0.1)" stroke="rgba(59,130,246,0.3)" stroke-width="1"/>
  <rect x="155" y="112" width="108" height="5" rx="8" fill="#3b82f6"/>
  <text x="209" y="132" font-size="8" fill="#93c5fd" text-anchor="middle" font-weight="700">ALMACÉN GENERAL</text>
  <text x="209" y="147" font-size="20" text-anchor="middle">🏭</text>
  <text x="209" y="166" font-size="8" fill="rgba(255,255,255,0.6)" text-anchor="middle">Bultos en patio: 842</text>
  <text x="209" y="178" font-size="7" fill="rgba(255,255,255,0.35)" text-anchor="middle">Contenedores: 61</text>

  <!-- Desconsolidación -->
  <rect x="270" y="112" width="108" height="78" rx="8" fill="rgba(249,115,22,0.1)" stroke="rgba(249,115,22,0.3)" stroke-width="1"/>
  <rect x="270" y="112" width="108" height="5" rx="8" fill="#f97316"/>
  <text x="324" y="132" font-size="8" fill="#fdba74" text-anchor="middle" font-weight="700">DESCONSOLIDACIÓN</text>
  <text x="324" y="147" font-size="20" text-anchor="middle">🚢</text>
  <text x="324" y="166" font-size="8" fill="rgba(255,255,255,0.6)" text-anchor="middle">HBL activos: 203</text>
  <text x="324" y="178" font-size="7" fill="rgba(255,255,255,0.35)" text-anchor="middle">Navieras: 12</text>

  <!-- Zona Franca -->
  <rect x="385" y="112" width="108" height="78" rx="8" fill="rgba(168,85,247,0.1)" stroke="rgba(168,85,247,0.3)" stroke-width="1"/>
  <rect x="385" y="112" width="108" height="5" rx="8" fill="#a855f7"/>
  <text x="439" y="132" font-size="8" fill="#d8b4fe" text-anchor="middle" font-weight="700">ZONA FRANCA</text>
  <text x="439" y="147" font-size="20" text-anchor="middle">⭐</text>
  <text x="439" y="166" font-size="8" fill="rgba(255,255,255,0.6)" text-anchor="middle">Empresas: 47</text>
  <text x="439" y="178" font-size="7" fill="rgba(255,255,255,0.35)" text-anchor="middle">Exportaciones: 91</text>

  <!-- ═══ DUA DETAIL TABLE ═══ -->
  <rect x="40" y="200" width="240" height="112" rx="8" fill="rgba(255,255,255,0.025)" stroke="rgba(255,255,255,0.07)" stroke-width="1"/>
  <text x="50" y="214" font-size="9" fill="rgba(255,255,255,0.45)">Declaraciones Aduaneras Recientes</text>
  <line x1="40" y1="218" x2="280" y2="218" stroke="rgba(255,255,255,0.07)" stroke-width="1"/>

  <!-- Table rows -->
  <text x="50" y="230" font-size="7" fill="rgba(255,255,255,0.25)">DUA / REF</text>
  <text x="145" y="230" font-size="7" fill="rgba(255,255,255,0.25)">IMPORTADOR</text>
  <text x="270" y="230" font-size="7" fill="rgba(255,255,255,0.25)" text-anchor="end">ESTADO</text>
  <line x1="40" y1="234" x2="280" y2="234" stroke="rgba(255,255,255,0.07)" stroke-width="1"/>

  <text x="50" y="246" font-size="8" fill="rgba(255,255,255,0.75)">2024-CR-00412</text>
  <text x="145" y="246" font-size="8" fill="rgba(255,255,255,0.55)">Rush Cargo</text>
  <rect x="240" y="238" width="38" height="12" rx="6" fill="rgba(34,197,94,0.2)"/>
  <text x="259" y="247" font-size="7" fill="#22c55e" text-anchor="middle">Liberado</text>

  <text x="50" y="260" font-size="8" fill="rgba(255,255,255,0.75)">2024-CR-00411</text>
  <text x="145" y="260" font-size="8" fill="rgba(255,255,255,0.55)">TNT Costa Rica</text>
  <rect x="236" y="252" width="42" height="12" rx="6" fill="rgba(249,115,22,0.2)"/>
  <text x="257" y="261" font-size="7" fill="#f97316" text-anchor="middle">Revisión</text>

  <text x="50" y="274" font-size="8" fill="rgba(255,255,255,0.75)">2024-CR-00410</text>
  <text x="145" y="274" font-size="8" fill="rgba(255,255,255,0.55)">Interport S.A.</text>
  <rect x="240" y="266" width="38" height="12" rx="6" fill="rgba(34,197,94,0.2)"/>
  <text x="259" y="275" font-size="7" fill="#22c55e" text-anchor="middle">Liberado</text>

  <text x="50" y="288" font-size="8" fill="rgba(255,255,255,0.75)">2024-CR-00409</text>
  <text x="145" y="288" font-size="8" fill="rgba(255,255,255,0.55)">ARAICA S.A.</text>
  <rect x="240" y="280" width="38" height="12" rx="6" fill="rgba(59,130,246,0.2)"/>
  <text x="259" y="289" font-size="7" fill="#93c5fd" text-anchor="middle">En TICA</text>

  <text x="50" y="302" font-size="8" fill="rgba(255,255,255,0.75)">2024-CR-00408</text>
  <text x="145" y="302" font-size="8" fill="rgba(255,255,255,0.55)">Novus Mensajería</text>
  <rect x="240" y="294" width="38" height="12" rx="6" fill="rgba(34,197,94,0.2)"/>
  <text x="259" y="303" font-size="7" fill="#22c55e" text-anchor="middle">Liberado</text>

  <!-- ═══ XML Preview ═══ -->
  <rect x="290" y="200" width="198" height="112" rx="8" fill="rgba(0,0,0,0.3)" stroke="rgba(20,184,166,0.2)" stroke-width="1"/>
  <text x="300" y="214" font-size="8" fill="#5eead4">RECAUCA XML — Vista previa</text>
  <line x1="290" y1="218" x2="488" y2="218" stroke="rgba(20,184,166,0.15)" stroke-width="1"/>
  <text x="298" y="230" font-size="7" fill="#f97316">&lt;?xml version="1.0"?&gt;</text>
  <text x="298" y="242" font-size="7" fill="#93c5fd">&lt;DeclaracionAduanera&gt;</text>
  <text x="306" y="254" font-size="7" fill="#86efac">  &lt;TipoDeclaracion&gt;</text>
  <text x="320" y="265" font-size="7" fill="#fff">    IM4</text>
  <text x="306" y="276" font-size="7" fill="#86efac">  &lt;/TipoDeclaracion&gt;</text>
  <text x="306" y="287" font-size="7" fill="#86efac">  &lt;Aduana&gt;SJO&lt;/Aduana&gt;</text>
  <text x="306" y="298" font-size="7" fill="#86efac">  &lt;Regimen&gt;10&lt;/Regimen&gt;</text>
  <text x="298" y="308" font-size="7" fill="#93c5fd">&lt;/DeclaracionAduanera&gt;</text>

  <!-- ═══ CONTAINER TRACKING WIDGET ═══ -->
  <g filter="url(#shadow)">
    <rect x="510" y="28" width="230" height="190" rx="14" fill="url(#card)" stroke="rgba(20,184,166,0.15)" stroke-width="1"/>
  </g>
  <rect x="510" y="28" width="230" height="38" rx="14" fill="#0d2a38"/>
  <rect x="510" y="50" width="230" height="16" fill="#0d2a38"/>
  <text x="625" y="51" font-size="10" fill="rgba(255,255,255,0.6)" text-anchor="middle">Seguimiento de Contenedores</text>

  <!-- Container boxes visual -->
  <!-- Row 1 -->
  <rect x="522" y="74" width="52" height="30" rx="4" fill="#14b8a6" opacity="0.8"/>
  <text x="548" y="93" font-size="8" fill="#fff" text-anchor="middle" font-weight="700">MSCU</text>
  <rect x="580" y="74" width="52" height="30" rx="4" fill="#3b82f6" opacity="0.8"/>
  <text x="606" y="93" font-size="8" fill="#fff" text-anchor="middle" font-weight="700">MAEU</text>
  <rect x="638" y="74" width="52" height="30" rx="4" fill="#f97316" opacity="0.7"/>
  <text x="664" y="93" font-size="8" fill="#fff" text-anchor="middle" font-weight="700">HLCU</text>
  <!-- Row 2 -->
  <rect x="522" y="110" width="52" height="30" rx="4" fill="#a855f7" opacity="0.7"/>
  <text x="548" y="129" font-size="8" fill="#fff" text-anchor="middle" font-weight="700">CMAU</text>
  <rect x="580" y="110" width="52" height="30" rx="4" fill="#14b8a6" opacity="0.6"/>
  <text x="606" y="129" font-size="8" fill="#fff" text-anchor="middle" font-weight="700">OOLU</text>
  <rect x="638" y="110" width="52" height="30" rx="4" fill="rgba(255,255,255,0.1)" stroke="rgba(255,255,255,0.2)" stroke-width="1" stroke-dasharray="3,2"/>
  <text x="664" y="129" font-size="8" fill="rgba(255,255,255,0.3)" text-anchor="middle">libre</text>

  <!-- Stats row -->
  <line x1="522" y1="148" x2="726" y2="148" stroke="rgba(255,255,255,0.07)" stroke-width="1"/>
  <text x="548" y="163" font-size="9" fill="rgba(255,255,255,0.35)" text-anchor="middle">En patio</text>
  <text x="548" y="177" font-size="14" fill="#14b8a6" font-weight="700" text-anchor="middle">61</text>
  <text x="625" y="163" font-size="9" fill="rgba(255,255,255,0.35)" text-anchor="middle">En tránsito</text>
  <text x="625" y="177" font-size="14" fill="#f59e0b" font-weight="700" text-anchor="middle">24</text>
  <text x="702" y="163" font-size="9" fill="rgba(255,255,255,0.35)" text-anchor="middle">Liberados</text>
  <text x="702" y="177" font-size="14" fill="#22c55e" font-weight="700" text-anchor="middle">183</text>

  <!-- Port/crane illustration -->
  <text x="625" y="207" font-size="9" fill="rgba(255,255,255,0.2)" text-anchor="middle">Puerto Limón · Puerto Caldera</text>

  <!-- ═══ 6 APPS CARD ═══ -->
  <g filter="url(#shadow)">
    <rect x="510" y="228" width="230" height="90" rx="12" fill="url(#card)" stroke="rgba(255,255,255,0.07)" stroke-width="1"/>
  </g>
  <text x="625" y="245" font-size="9" fill="rgba(255,255,255,0.4)" text-anchor="middle">APPS MÓVILES INCLUIDAS</text>
  <!-- 6 app icons -->
  <rect x="522" y="252" width="30" height="30" rx="8" fill="rgba(20,184,166,0.2)" stroke="rgba(20,184,166,0.4)" stroke-width="1"/>
  <text x="537" y="272" font-size="14" text-anchor="middle">📦</text>
  <rect x="558" y="252" width="30" height="30" rx="8" fill="rgba(59,130,246,0.2)" stroke="rgba(59,130,246,0.4)" stroke-width="1"/>
  <text x="573" y="272" font-size="14" text-anchor="middle">🚛</text>
  <rect x="594" y="252" width="30" height="30" rx="8" fill="rgba(249,115,22,0.2)" stroke="rgba(249,115,22,0.4)" stroke-width="1"/>
  <text x="609" y="272" font-size="14" text-anchor="middle">📋</text>
  <rect x="630" y="252" width="30" height="30" rx="8" fill="rgba(168,85,247,0.2)" stroke="rgba(168,85,247,0.4)" stroke-width="1"/>
  <text x="645" y="272" font-size="14" text-anchor="middle">🔍</text>
  <rect x="666" y="252" width="30" height="30" rx="8" fill="rgba(34,197,94,0.2)" stroke="rgba(34,197,94,0.4)" stroke-width="1"/>
  <text x="681" y="272" font-size="14" text-anchor="middle">✅</text>
  <rect x="702" y="252" width="30" height="30" rx="8" fill="rgba(236,72,153,0.2)" stroke="rgba(236,72,153,0.4)" stroke-width="1"/>
  <text x="717" y="272" font-size="14" text-anchor="middle">📊</text>

  <text x="625" y="300" font-size="8" fill="rgba(255,255,255,0.3)" text-anchor="middle">Flutter · Android &amp; iOS · Offline ready</text>

  <!-- ═══ TICA COMPLIANCE CARD ═══ -->
  <g filter="url(#shadow)">
    <rect x="510" y="328" width="230" height="120" rx="12" fill="#0a2218" stroke="rgba(20,184,166,0.3)" stroke-width="1.5"/>
  </g>
  <rect x="510" y="328" width="230" height="5" rx="12" fill="#14b8a6"/>
  <rect x="510" y="333" width="230" height="5" fill="#14b8a6"/>
  <rect x="522" y="344" width="32" height="32" rx="8" fill="#0d9488"/>
  <text x="538" y="365" font-size="16" text-anchor="middle">🔒</text>
  <text x="562" y="354" font-size="11" fill="#5eead4" font-weight="700">Conectado a TICA</text>
  <text x="562" y="367" font-size="8" fill="rgba(255,255,255,0.5)">Transmisión XML en tiempo real</text>
  <line x1="522" y1="382" x2="726" y2="382" stroke="rgba(20,184,166,0.2)" stroke-width="1"/>
  <text x="522" y="395" font-size="8" fill="rgba(255,255,255,0.45)">Protocolo</text>
  <text x="726" y="395" font-size="8" fill="#5eead4" text-anchor="end">RECAUCA XML 3.0</text>
  <text x="522" y="408" font-size="8" fill="rgba(255,255,255,0.45)">Regímenes</text>
  <text x="726" y="408" font-size="8" fill="#5eead4" text-anchor="end">IM4 · EX1 · ZF · Tránsito</text>
  <text x="522" y="421" font-size="8" fill="rgba(255,255,255,0.45)">Tipos de DUA</text>
  <text x="726" y="421" font-size="8" fill="#5eead4" text-anchor="end">Importación · Exportación · Zona Franca</text>
  <text x="522" y="434" font-size="8" fill="rgba(255,255,255,0.45)">Ambiente</text>
  <text x="726" y="434" font-size="8" fill="#22c55e" text-anchor="end">Producción ✓</text>

  <!-- Process flow at bottom -->
  <rect x="40" y="336" width="460" height="42" rx="8" fill="rgba(255,255,255,0.025)" stroke="rgba(255,255,255,0.06)" stroke-width="1"/>
  <text x="55" y="352" font-size="8" fill="rgba(255,255,255,0.35)">FLUJO:</text>
  <!-- Steps -->
  <rect x="90" y="338" width="54" height="22" rx="5" fill="rgba(20,184,166,0.15)" stroke="rgba(20,184,166,0.35)" stroke-width="1"/>
  <text x="117" y="353" font-size="7" fill="#5eead4" text-anchor="middle">Recepción</text>
  <text x="153" y="353" font-size="10" fill="rgba(255,255,255,0.3)">→</text>
  <rect x="163" y="338" width="54" height="22" rx="5" fill="rgba(59,130,246,0.15)" stroke="rgba(59,130,246,0.35)" stroke-width="1"/>
  <text x="190" y="353" font-size="7" fill="#93c5fd" text-anchor="middle">Almacenaje</text>
  <text x="226" y="353" font-size="10" fill="rgba(255,255,255,0.3)">→</text>
  <rect x="236" y="338" width="54" height="22" rx="5" fill="rgba(249,115,22,0.15)" stroke="rgba(249,115,22,0.35)" stroke-width="1"/>
  <text x="263" y="353" font-size="7" fill="#fdba74" text-anchor="middle">DUA / TICA</text>
  <text x="299" y="353" font-size="10" fill="rgba(255,255,255,0.3)">→</text>
  <rect x="309" y="338" width="54" height="22" rx="5" fill="rgba(168,85,247,0.15)" stroke="rgba(168,85,247,0.35)" stroke-width="1"/>
  <text x="336" y="353" font-size="7" fill="#d8b4fe" text-anchor="middle">Revisión</text>
  <text x="372" y="353" font-size="10" fill="rgba(255,255,255,0.3)">→</text>
  <rect x="382" y="338" width="54" height="22" rx="5" fill="rgba(34,197,94,0.15)" stroke="rgba(34,197,94,0.35)" stroke-width="1"/>
  <text x="409" y="353" font-size="7" fill="#86efac" text-anchor="middle">Liberación</text>
  <!-- bottom step labels -->
  <text x="117" y="372" font-size="6" fill="rgba(255,255,255,0.2)" text-anchor="middle">Mercancía entra</text>
  <text x="190" y="372" font-size="6" fill="rgba(255,255,255,0.2)" text-anchor="middle">Patio / bodega</text>
  <text x="263" y="372" font-size="6" fill="rgba(255,255,255,0.2)" text-anchor="middle">Transmisión XML</text>
  <text x="336" y="372" font-size="6" fill="rgba(255,255,255,0.2)" text-anchor="middle">Aforo físico</text>
  <text x="409" y="372" font-size="6" fill="rgba(255,255,255,0.2)" text-anchor="middle">Retiro cliente</text>

  <text x="380" y="460" font-size="11" fill="rgba(255,255,255,0.2)" text-anchor="middle">softwaresolutions.co.cr</text>
</svg>
