<svg viewBox="0 0 820 500" xmlns="http://www.w3.org/2000/svg" font-family="'Segoe UI',Arial,sans-serif">
  <defs>
    <linearGradient id="bg" x1="0" y1="0" x2="1" y2="1">
      <stop offset="0%" stop-color="#0b1628"/>
      <stop offset="100%" stop-color="#112240"/>
    </linearGradient>
    <linearGradient id="card1" x1="0" y1="0" x2="0" y2="1">
      <stop offset="0%" stop-color="#1a2e50"/>
      <stop offset="100%" stop-color="#0f1e38"/>
    </linearGradient>
    <linearGradient id="pulse" cx="50%" cy="50%" r="50%" fx="50%" fy="50%">
      <stop offset="0%" stop-color="#3b82f6" stop-opacity="0.3"/>
      <stop offset="100%" stop-color="#3b82f6" stop-opacity="0"/>
    </linearGradient>
    <filter id="glow">
      <feDropShadow dx="0" dy="0" stdDeviation="8" flood-color="#3b82f6" flood-opacity="0.4"/>
    </filter>
    <filter id="shadow">
      <feDropShadow dx="0" dy="6" stdDeviation="10" flood-color="#000" flood-opacity="0.4"/>
    </filter>
    <filter id="tealGlow">
      <feDropShadow dx="0" dy="0" stdDeviation="6" flood-color="#14b8a6" flood-opacity="0.5"/>
    </filter>
  </defs>

  <!-- Background -->
  <rect width="820" height="500" fill="url(#bg)"/>

  <!-- Grid lines (subtle) -->
  <g stroke="rgba(255,255,255,0.03)" stroke-width="1">
    <line x1="0" y1="100" x2="820" y2="100"/>
    <line x1="0" y1="200" x2="820" y2="200"/>
    <line x1="0" y1="300" x2="820" y2="300"/>
    <line x1="0" y1="400" x2="820" y2="400"/>
    <line x1="164" y1="0" x2="164" y2="500"/>
    <line x1="328" y1="0" x2="328" y2="500"/>
    <line x1="492" y1="0" x2="492" y2="500"/>
    <line x1="656" y1="0" x2="656" y2="500"/>
  </g>

  <!-- Decorative glows -->
  <circle cx="410" cy="250" r="220" fill="#3b82f6" fill-opacity="0.04"/>
  <circle cx="700" cy="100" r="100" fill="#14b8a6" fill-opacity="0.06"/>
  <circle cx="120" cy="420" r="80" fill="#f97316" fill-opacity="0.05"/>

  <!-- ═══ CENTER HUB ═══ -->
  <circle cx="410" cy="250" r="52" fill="#1a3060" stroke="#3b82f6" stroke-width="2" filter="url(#glow)"/>
  <circle cx="410" cy="250" r="38" fill="#0f1e40" stroke="rgba(59,130,246,0.4)" stroke-width="1"/>
  <!-- SS Logo text in hub -->
  <text x="410" y="243" font-size="14" fill="#3b82f6" font-weight="900" text-anchor="middle">SS</text>
  <text x="410" y="258" font-size="7" fill="rgba(255,255,255,0.5)" text-anchor="middle">Software</text>
  <text x="410" y="268" font-size="7" fill="rgba(255,255,255,0.5)" text-anchor="middle">Solutions</text>

  <!-- ═══ CONNECTION LINES (hub to modules) ═══ -->
  <g stroke="rgba(59,130,246,0.2)" stroke-width="1" stroke-dasharray="4,4">
    <!-- to ERP Comercial -->
    <line x1="362" y1="228" x2="238" y2="160"/>
    <!-- to ERP Aduanas -->
    <line x1="362" y1="268" x2="238" y2="330"/>
    <!-- to Web -->
    <line x1="458" y1="228" x2="578" y2="158"/>
    <!-- to Apps -->
    <line x1="458" y1="268" x2="578" y2="338"/>
    <!-- to Cloud -->
    <line x1="410" y1="198" x2="410" y2="120"/>
    <!-- to Integrations -->
    <line x1="410" y1="302" x2="410" y2="378"/>
  </g>

  <!-- ═══ MODULE CARDS ═══ -->

  <!-- ERP Comercial -->
  <g filter="url(#shadow)">
    <rect x="110" y="118" width="130" height="86" rx="10" fill="url(#card1)" stroke="rgba(59,130,246,0.4)" stroke-width="1.5"/>
  </g>
  <rect x="110" y="118" width="130" height="5" rx="10" fill="#3b82f6"/>
  <rect x="110" y="123" width="130" height="5" fill="#3b82f6"/>
  <text x="175" y="144" font-size="18" text-anchor="middle">🏢</text>
  <text x="175" y="162" font-size="10" fill="#fff" font-weight="700" text-anchor="middle">ERP Comercial</text>
  <text x="175" y="175" font-size="7.5" fill="rgba(255,255,255,0.5)" text-anchor="middle">15+ módulos · FE · POS</text>
  <text x="175" y="186" font-size="7.5" fill="#93c5fd" text-anchor="middle">3 apps Flutter</text>
  <rect x="122" y="192" width="106" height="8" rx="4" fill="rgba(59,130,246,0.15)"/>
  <rect x="122" y="192" width="80" height="8" rx="4" fill="rgba(59,130,246,0.4)"/>

  <!-- ERP Aduanas -->
  <g filter="url(#shadow)">
    <rect x="110" y="290" width="130" height="86" rx="10" fill="url(#card1)" stroke="rgba(20,184,166,0.4)" stroke-width="1.5"/>
  </g>
  <rect x="110" y="290" width="130" height="5" rx="10" fill="#14b8a6"/>
  <rect x="110" y="295" width="130" height="5" fill="#14b8a6"/>
  <text x="175" y="316" font-size="18" text-anchor="middle">🛃</text>
  <text x="175" y="334" font-size="10" fill="#fff" font-weight="700" text-anchor="middle">ERP Aduanas</text>
  <text x="175" y="347" font-size="7.5" fill="rgba(255,255,255,0.5)" text-anchor="middle">TICA · RECAUCA · ZF</text>
  <text x="175" y="358" font-size="7.5" fill="#5eead4" text-anchor="middle">6 apps Flutter</text>
  <rect x="122" y="364" width="106" height="8" rx="4" fill="rgba(20,184,166,0.15)"/>
  <rect x="122" y="364" width="92" height="8" rx="4" fill="rgba(20,184,166,0.4)"/>

  <!-- Desarrollo Web -->
  <g filter="url(#shadow)">
    <rect x="576" y="114" width="130" height="82" rx="10" fill="url(#card1)" stroke="rgba(168,85,247,0.35)" stroke-width="1.5"/>
  </g>
  <rect x="576" y="114" width="130" height="5" rx="10" fill="#a855f7"/>
  <rect x="576" y="119" width="130" height="5" fill="#a855f7"/>
  <text x="641" y="140" font-size="18" text-anchor="middle">🌐</text>
  <text x="641" y="158" font-size="10" fill="#fff" font-weight="700" text-anchor="middle">Desarrollo Web</text>
  <text x="641" y="171" font-size="7.5" fill="rgba(255,255,255,0.5)" text-anchor="middle">Sites · E-commerce · Apps</text>
  <text x="641" y="182" font-size="7.5" fill="#d8b4fe" text-anchor="middle">A la medida</text>

  <!-- Apps Móviles -->
  <g filter="url(#shadow)">
    <rect x="576" y="296" width="130" height="82" rx="10" fill="url(#card1)" stroke="rgba(249,115,22,0.35)" stroke-width="1.5"/>
  </g>
  <rect x="576" y="296" width="130" height="5" rx="10" fill="#f97316"/>
  <rect x="576" y="301" width="130" height="5" fill="#f97316"/>
  <text x="641" y="322" font-size="18" text-anchor="middle">📱</text>
  <text x="641" y="340" font-size="10" fill="#fff" font-weight="700" text-anchor="middle">Apps Móviles</text>
  <text x="641" y="353" font-size="7.5" fill="rgba(255,255,255,0.5)" text-anchor="middle">Android · iOS · Flutter</text>
  <text x="641" y="364" font-size="7.5" fill="#fdba74" text-anchor="middle">Nativas &amp; multiplataforma</text>

  <!-- Cloud / Nube -->
  <g filter="url(#shadow)">
    <rect x="346" y="36" width="128" height="74" rx="10" fill="url(#card1)" stroke="rgba(34,197,94,0.35)" stroke-width="1.5"/>
  </g>
  <rect x="346" y="36" width="128" height="5" rx="10" fill="#22c55e"/>
  <rect x="346" y="41" width="128" height="5" fill="#22c55e"/>
  <text x="410" y="62" font-size="18" text-anchor="middle">☁️</text>
  <text x="410" y="80" font-size="10" fill="#fff" font-weight="700" text-anchor="middle">Soluciones en la Nube</text>
  <text x="410" y="93" font-size="7.5" fill="rgba(255,255,255,0.5)" text-anchor="middle">Hosting · SaaS · Infraestructura</text>
  <text x="410" y="104" font-size="7.5" fill="#86efac" text-anchor="middle">99.9% uptime</text>

  <!-- Integraciones -->
  <g filter="url(#shadow)">
    <rect x="346" y="390" width="128" height="74" rx="10" fill="url(#card1)" stroke="rgba(236,72,153,0.35)" stroke-width="1.5"/>
  </g>
  <rect x="346" y="390" width="128" height="5" rx="10" fill="#ec4899"/>
  <rect x="346" y="395" width="128" height="5" fill="#ec4899"/>
  <text x="410" y="416" font-size="18" text-anchor="middle">🔗</text>
  <text x="410" y="434" font-size="10" fill="#fff" font-weight="700" text-anchor="middle">Integraciones</text>
  <text x="410" y="447" font-size="7.5" fill="rgba(255,255,255,0.5)" text-anchor="middle">API REST · WhatsApp · SINPE</text>
  <text x="410" y="458" font-size="7.5" fill="#f9a8d4" text-anchor="middle">Conectamos sus sistemas</text>

  <!-- ═══ STATS ROW (floating chips) ═══ -->
  <!-- 15+ años -->
  <g filter="url(#shadow)">
    <rect x="30" y="36" width="70" height="48" rx="8" fill="#1a2e50" stroke="rgba(255,255,255,0.08)" stroke-width="1"/>
  </g>
  <text x="65" y="56" font-size="20" fill="#f59e0b" font-weight="800" text-anchor="middle">15+</text>
  <text x="65" y="68" font-size="7" fill="rgba(255,255,255,0.4)" text-anchor="middle">años de</text>
  <text x="65" y="78" font-size="7" fill="rgba(255,255,255,0.4)" text-anchor="middle">experiencia</text>

  <!-- 200+ clientes -->
  <g filter="url(#shadow)">
    <rect x="30" y="94" width="70" height="48" rx="8" fill="#1a2e50" stroke="rgba(255,255,255,0.08)" stroke-width="1"/>
  </g>
  <text x="65" y="114" font-size="20" fill="#22c55e" font-weight="800" text-anchor="middle">200+</text>
  <text x="65" y="126" font-size="7" fill="rgba(255,255,255,0.4)" text-anchor="middle">clientes</text>
  <text x="65" y="136" font-size="7" fill="rgba(255,255,255,0.4)" text-anchor="middle">satisfechos</text>

  <!-- CR flag colors decoration -->
  <g filter="url(#shadow)">
    <rect x="720" y="380" width="70" height="90" rx="8" fill="#1a2e50" stroke="rgba(255,255,255,0.08)" stroke-width="1"/>
  </g>
  <rect x="720" y="380" width="70" height="18" rx="8" fill="#1a3a8f"/>
  <rect x="720" y="392" width="70" height="6" fill="#1a3a8f"/>
  <rect x="720" y="398" width="70" height="24" fill="#c8102e"/>
  <rect x="720" y="422" width="70" height="24" fill="#1a3a8f"/>
  <rect x="720" y="440" width="70" height="30" rx="8" fill="#1a3a8f"/>
  <rect x="720" y="446" width="70" height="18" fill="#1a3a8f"/>
  <text x="755" y="417" font-size="8" fill="rgba(255,255,255,0.9)" text-anchor="middle" font-weight="700">Costa Rica</text>
  <text x="755" y="428" font-size="7" fill="rgba(255,255,255,0.7)" text-anchor="middle">100% local</text>
  <text x="755" y="456" font-size="7" fill="rgba(255,255,255,0.5)" text-anchor="middle">Alajuela · CR</text>
  <text x="755" y="466" font-size="7" fill="rgba(255,255,255,0.4)" text-anchor="middle">(506) 2101-3248</text>

  <!-- Corner label -->
  <text x="410" y="490" font-size="10" fill="rgba(255,255,255,0.15)" text-anchor="middle">softwaresolutions.co.cr — Software a la medida desde Costa Rica</text>
</svg>
